#!OML:ASF F:\VICON\USERDATA\INSTALL\rory3\rory3.ASF
:FULLY-SPECIFIED
:DEGREES
81
root 1.5421024575396265 17.90808514026848 54.17923882063299 -3.5039876295712253 -0.6779927041284224 -4.200152334088506
lfemur 1.0321038849433943 -1.7290116513065612 -15.934923167409314
ltibia 51.250094788187326
lfoot -6.610239063497938 -0.8678588872963982
ltoes -10.400295276983998
rfemur -15.362014950849831 1.9728848270438044 29.364993833530725
rtibia 29.71924032980161
rfoot -16.688861517856154 -11.985161650075767
rtoes -2.5785662198537107
lowerback 10.281982042006323 -1.209835633919366 1.266571827318097
upperback -0.16048940586166904 -0.9842842851979716 2.5929426625207466
thorax -6.095487035954293 -0.4615390499867841 2.9589416876911225
lowerneck -16.96232567570353 -3.2436644744047944 -1.6098208600810429
upperneck 21.689066719739696 -4.271941819554468 0.8301854198683273
head 9.724166867295999 -2.0356572099788024 0.03465639702499579
lclavicle -2.5494435346216028e-15 -2.752099527067404e-15
lhumerus -30.013374352659003 1.7959812892211722 82.45936467035469
lradius 21.857093233967827
lwrist 10.908813536073461
lhand -29.984311116929067 18.252696800709348
lfingers nan
lthumb -2.962574416799743 48.512537096582264
rclavicle -2.6691117396897554e-15 -2.812549851957355e-15
rhumerus -32.75280662402929 -23.378760842555515 -74.40090026496955
rradius 32.198412859593795
rwrist 0.743740513821741
rhand -17.53384052742668 22.245629543049198
rfingers nan
rthumb 8.626069784690138 -7.765317710284641
82
root 1.4924442449692021 17.888473145582818 52.7885364692942 -3.611967289053705 -0.5760546076212241 -5.635975283170689
lfemur -2.9380042905664414 -1.0470001385739545 -13.390738704324605
ltibia 55.53681035640652
lfoot -7.744116326857396 -0.4885578569151794
ltoes -11.137590513519447
rfemur -13.871819166916369 2.347584632322072 30.46910042999077
rtibia 30.762504216633925
rfoot -17.62655276923619 -12.668776033607966
rtoes -3.7331696517120525
lowerback 10.415349596352577 -0.9112816955317681 2.3078445463327997
upperback -0.11130668140960548 -0.24889437635551132 2.77071578018362
thorax -6.194781919094078 -0.10511557258532686 2.3132882154263363
lowerneck -17.06771771716435 -3.366388049516348 -1.4445184130776767
upperneck 21.473035885275596 -4.500724728971946 0.8440837934261662
head 9.65213845214903 -2.1196232558839996 -0.019229114781390916
lclavicle -2.541125273365747e-15 -2.7492198483927146e-15
lhumerus -30.613061429472456 2.3643343382140243 82.60702455794313
lradius 21.813239828150778
lwrist 11.307717381482188
lhand -30.139732661882665 18.116170106226217
lfingers nan
lthumb -3.072368882770946 48.53487444727097
rclavicle -2.6660529071955027e-15 -2.8152634404902764e-15
rhumerus -32.13524333985636 -23.023846260520436 -74.24853637569319
rradius 32.1955709262636
rwrist 1.1967727898158795
rhand -17.50988796027186 22.402846757021234
rfingers nan
rthumb 8.638703191562575 -7.546718587538892
83
root 1.4510305459221726 17.883049770343376 52.89112898037052 -3.5700953331726426 0.005442203629526354 -6.769810711836161
lfemur -7.740075133489269 -0.6872286871599309 -11.852351732392794
ltibia 59.10521871339357
lfoot -8.371196725661878 -0.5138432487745419
ltoes -11.491404917195307
rfemur -12.273557084467487 2.221699861034649 31.165339099673698
rtibia 31.716405420117344
rfoot -17.851194985315608 -12.980721520128215
rtoes -4.812873006655668
lowerback 10.506030757993555 -0.6794239748467628 3.224470272942754
upperback -0.09469518553425756 0.36130294540108493 2.8517426053587247
thorax -6.262680111236558 0.20582083573681292 1.67579622908245
lowerneck -17.109744933360325 -3.500571711335341 -1.3355816414750743
upperneck 21.28661164973315 -4.7427998725487015 0.894618953567252
head 9.587938419244873 -2.2078635082443254 -0.05563922163101606
lclavicle -2.5290661776565023e-15 -2.7446706036650722e-15
lhumerus -31.118255589854076 2.839139194237576 82.70211714875657
lradius 21.985075758628376
lwrist 11.583783425542084
lhand -30.046513680896968 18.342249121696476
lfingers nan
lthumb -3.1252492682093043 48.4444845579144
rclavicle -2.6592223551638462e-15 -2.8173434514323567e-15
rhumerus -31.46085296144874 -22.535147514246905 -74.12467521539341
rradius 32.26782643268279
rwrist 1.9634631645712772
rhand -17.495007808242494 22.602404690669136
rfingers nan
rthumb 8.661723700454077 -7.240098093694882
84
root 1.4193854187746109 17.8790006949942 52.67268589442808 -3.6516550690491654 0.5302936098109735 -6.696036063452801
lfemur -12.072655401809278 -0.6500965676183466 -12.081865178787037
ltibia 60.864889444813386
lfoot -9.72354223510761 -0.030275102759284245
ltoes -12.109407228642747
rfemur -10.26960448174509 1.6753299068988021 30.84018555058546
rtibia 32.25968427287872
rfoot -17.454783901963815 -12.957024117586155
rtoes -5.505451227131807
lowerback 10.539487178053413 -0.5106485816713932 3.2946386587373313
upperback -0.09213681245676782 0.657973281059144 2.722122801951043
thorax -6.266154082550249 0.3617834897998907 1.2150693562314119
lowerneck -17.046357467583093 -3.622243109076538 -1.2911818595926694
upperneck 21.186531372941285 -4.957809798683044 0.9613327748831071
head 9.552956471761249 -2.2850582614197963 -0.07432268504490772
lclavicle -2.5160186446472254e-15 -2.7394815408594803e-15
lhumerus -31.518701681818346 3.2198367271768866 82.76845451798633
lradius 22.3274707587205
lwrist 11.796410315894276
lhand -30.09735622388942 18.133501760037802
lfingers nan
lthumb -3.1164450829063877 48.43442347311771
rclavicle -2.6527302635428623e-15 -2.8196425127689102e-15
rhumerus -30.77235570703527 -21.94879515499497 -74.05859498530702
rradius 32.413677201958095
rwrist 2.796064457666432
rhand -17.504196615444464 22.782724359714468
rfingers nan
rthumb 8.683380627830456 -6.937187180090893
